<svg id="Layer_1" data-name="Layer 1" xmlns="http://www.w3.org/2000/svg" xmlns:xlink="http://www.w3.org/1999/xlink" viewBox="0 0 595.28 595.28"><defs><style>.cls-1{fill:#41729f;}.cls-2,.cls-6,.cls-7{fill:none;stroke:#fff;stroke-miterlimit:10;}.cls-2{stroke-width:14.12px;}.cls-3{fill:url(#linear-gradient);}.cls-4{fill:url(#linear-gradient-2);}.cls-5{fill:#fff;}.cls-6{stroke-width:5.01px;}.cls-7{stroke-width:6.27px;}</style><linearGradient id="linear-gradient" x1="319.53" y1="342.26" x2="319.6" y2="342.26" gradientUnits="userSpaceOnUse"><stop offset="0.16" stop-color="#fdc830"/><stop offset="1" stop-color="#f37335"/></linearGradient><linearGradient id="linear-gradient-2" x1="319.53" y1="149.56" x2="319.53" y2="149.56" xlink:href="#linear-gradient"/></defs><rect class="cls-1" width="595.28" height="595.28" rx="112.64"/><rect class="cls-2" x="30.89" y="30.89" width="533.5" height="533.5" rx="100.95"/><polygon class="cls-3" points="319.6 341.96 319.6 342.56 319.53 342.56 319.53 341.98 319.6 341.96"/><path class="cls-4" d="M319.53,149.56"/><rect class="cls-5" x="155.79" y="155.79" width="283.69" height="283.69" rx="89.3" transform="translate(-123.29 297.64) rotate(-45)"/><rect class="cls-1" x="227.53" y="379.24" width="142.25" height="37.28" rx="10.65"/><rect class="cls-1" x="241.27" y="358.38" width="114.77" height="11.41" rx="5.71"/><path class="cls-1" d="M382.51,304.71l-39,39H252.79l-39-39s61.64-117,64.76-147.7H291v93.35h14.36V157h12.36v93.35h.05V157.51c3.72,31.46,64.71,147.2,64.71,147.2l-.07,0Z"/><circle class="cls-5" cx="298.15" cy="241.94" r="18.34"/><line class="cls-6" x1="194.22" y1="82.71" x2="401.06" y2="82.71"/><path class="cls-6" d="M190.44,127.29C216,99.64,254.35,82.07,297.19,82.07c43.34,0,82.06,18,107.65,46.2"/><circle class="cls-7" cx="185.57" cy="82.71" r="8.65"/><circle class="cls-7" cx="409.7" cy="82.71" r="8.65"/><rect class="cls-5" x="288.39" y="72.82" width="18.49" height="18.49"/><rect class="cls-5" x="395.6" y="119.03" width="18.49" height="18.49" transform="translate(229.42 -258.48) rotate(48.02)"/><rect class="cls-5" x="181.2" y="118.64" width="18.49" height="18.49" transform="translate(-33.32 178.42) rotate(-46.61)"/><line class="cls-6" x1="401.06" y1="512.57" x2="194.22" y2="512.57"/><path class="cls-6" d="M404.84,468c-25.59,27.66-63.92,45.23-106.75,45.23-43.34,0-82.07-18-107.65-46.21"/><circle class="cls-7" cx="409.7" cy="512.57" r="8.65"/><circle class="cls-7" cx="185.57" cy="512.57" r="8.65"/><rect class="cls-5" x="288.39" y="503.97" width="18.49" height="18.49" transform="translate(595.28 1026.42) rotate(180)"/><rect class="cls-5" x="181.19" y="457.76" width="18.49" height="18.49" transform="translate(-29.37 920.92) rotate(-131.98)"/><rect class="cls-5" x="395.59" y="458.15" width="18.49" height="18.49" transform="translate(1022.59 494.32) rotate(133.39)"/></svg>